<?xml version="1.0" encoding="UTF-8"?>
<svg version="1.1" xmlns="http://www.w3.org/2000/svg" width="309" height="334">
<path d="M0 0 C101.97 0 203.94 0 309 0 C309 110.22 309 220.44 309 334 C207.03 334 105.06 334 0 334 C0 223.78 0 113.56 0 0 Z " fill="#231F20" transform="translate(0,0)"/>
<path d="M0 0 C3 1 3 1 4.2109375 3.07421875 C4.59507813 3.93660156 4.97921875 4.79898438 5.375 5.6875 C6.91768247 8.96980312 8.39698581 11.72774471 10.8125 14.4375 C13 17 13 17 13 20 C11.53125 21.47265625 11.53125 21.47265625 9.5 23.0625 C0.09800343 31.05003691 -4.47354682 39.23684877 -8 51 C-8.26184082 51.74354736 -8.52368164 52.48709473 -8.79345703 53.25317383 C-11.01473214 59.83902519 -11.39534416 65.77002635 -11.25 72.6875 C-11.24484375 73.68072266 -11.2396875 74.67394531 -11.234375 75.69726562 C-11.17915049 80.89182146 -10.88778665 85.88090762 -10 91 C-9.34 91 -8.68 91 -8 91 C-7.82726562 91.63164062 -7.65453125 92.26328125 -7.4765625 92.9140625 C-2.82907523 107.70927428 8.29081562 121.65294707 22.0625 128.9375 C40.36301761 137.12229843 59.02873251 137.94592136 78 132 C93.67150745 125.95405232 105.10043654 114.64590598 113 100 C121.22594374 81.42254566 121.22672158 62.91463163 114 44 C113.49339844 42.60587891 113.49339844 42.60587891 112.9765625 41.18359375 C109.82703628 33.80707181 102.30091502 23.65045751 95 20 C95.6218928 16.35268276 97.19447458 14.07836987 99.375 11.125 C101.97881955 7.51066321 104.18344604 4.06053238 106 0 C120.42149523 6.35075019 128.84265186 21.63471923 135.16308594 35.21728516 C135.85573885 36.6927086 136.5835531 38.15156779 137.3203125 39.60546875 C145.54439539 56.32777062 144.61747282 82.34862448 138.85302734 99.81738281 C135.52188673 108.34067907 130.71643219 116.84040296 125 124 C126.3146475 127.54954824 128.43526264 129.27286583 131.35546875 131.58203125 C133.64752984 133.55832146 135.5038849 135.81347013 137.41015625 138.15625 C139.48794677 140.56587438 141.73551579 142.7647559 144 145 C145.05283449 146.05133164 146.10488126 147.10345256 147.15625 148.15625 C147.70410156 148.70410156 148.25195312 149.25195312 148.81640625 149.81640625 C150.4921875 151.4921875 152.16796875 153.16796875 153.84375 154.84375 C154.37911377 155.37846924 154.91447754 155.91318848 155.46606445 156.46411133 C156.86093906 157.860762 158.24920236 159.26400773 159.63671875 160.66796875 C161.80055866 162.8031959 164.01329942 164.82505543 166.3125 166.8125 C167.00988281 167.41707031 167.70726562 168.02164063 168.42578125 168.64453125 C168.94527344 169.09183594 169.46476563 169.53914062 170 170 C169.10694393 174.93495672 166.13398983 177.38097864 162.6875 180.8125 C162.10548828 181.42287109 161.52347656 182.03324219 160.92382812 182.66210938 C160.35470703 183.23380859 159.78558594 183.80550781 159.19921875 184.39453125 C158.68190186 184.91893799 158.16458496 185.44334473 157.6315918 185.98364258 C156 187 156 187 153.91333008 186.79956055 C151.06444629 185.60904193 149.88604527 183.42491535 148 181 C146.28304594 179.43502513 144.50863886 177.95496292 142.7265625 176.46484375 C139.17899579 173.45503036 136.09157559 170.13178356 133.125 166.5625 C130.53496232 163.49307231 127.72619077 160.94750517 124.64453125 158.3828125 C118.86453735 153.52267511 114.01225791 147.62377522 109 142 C105.36315327 143.31723247 102.51764862 144.95079406 99.375 147.1875 C94.22391705 150.53956898 88.9517764 152.76518866 83.1875 154.875 C82.37522949 155.17301514 81.56295898 155.47103027 80.72607422 155.77807617 C64.49358382 161.52380939 43.38353872 161.18650486 27 156 C26.31421875 155.80664062 25.6284375 155.61328125 24.921875 155.4140625 C3.29001318 148.41551897 -13.3764631 132.16652323 -24.58984375 112.83203125 C-31.37942812 99.19643938 -34.39472214 86.16595016 -34.375 70.9375 C-34.37338867 69.65141846 -34.37177734 68.36533691 -34.37011719 67.0402832 C-34.20720425 54.38658018 -32.46634692 43.07220104 -26 32 C-25.58105469 31.1646875 -25.16210938 30.329375 -24.73046875 29.46875 C-19.35191369 18.91907726 -10.58792699 6.05024399 0 0 Z " fill="#F8F8F8" transform="translate(83,100)"/>
<path d="M0 0 C9.13990126 4.56995063 15.83967017 11.18731925 19.171875 20.90625 C19.3884375 21.62039062 19.605 22.33453125 19.828125 23.0703125 C20.323125 24.5553125 20.323125 24.5553125 20.828125 26.0703125 C21.73153734 38.15530386 20.71985349 47.89113148 12.640625 57.3828125 C4.09345834 66.15306997 -3.28595774 69.8143817 -15.5625 70.16796875 C-25.44379254 69.89590673 -33.56981248 67.53438214 -40.77734375 60.54296875 C-43.11841284 57.81999606 -45.17790696 55.0549412 -47.171875 52.0703125 C-47.64753906 51.38453125 -48.12320313 50.69875 -48.61328125 49.9921875 C-53.20784062 41.85965733 -52.36666457 30.41984772 -50.39453125 21.58984375 C-47.2206708 12.85890379 -41.26628309 5.96047343 -33.18359375 1.375 C-22.24231997 -3.69711367 -11.27284463 -4.8254263 0 0 Z " fill="#FBFBFB" transform="translate(152.171875,46.9296875)"/>
<path d="M0 0 C7.92 0 15.84 0 24 0 C22.50996739 2.98006522 21.39573899 4.83679931 19.375 7.3125 C16.70725316 11.05365977 16.38929254 13.34335562 17 18 C17.6707934 20.77321298 18.40352394 23.52595521 19.14453125 26.28125 C20.39214407 31.70466281 21.1170411 37.18809144 21.8215332 42.70581055 C22.50766326 47.75294523 23.62097913 52.24101736 25.49414062 56.9855957 C26.31821601 60.26718162 25.44174251 62.23420647 23.78491211 65.10644531 C23.28741455 65.83959961 22.78991699 66.57275391 22.27734375 67.328125 C21.73916016 68.12734375 21.20097656 68.9265625 20.64648438 69.75 C20.08251953 70.575 19.51855469 71.4 18.9375 72.25 C18.36966797 73.09046875 17.80183594 73.9309375 17.21679688 74.796875 C15.81633481 76.86814662 14.4106094 78.93563166 13 81 C8.58835207 79.09230738 6.79891474 76.05791946 4.375 72.0625 C3.98054687 71.42892578 3.58609375 70.79535156 3.1796875 70.14257812 C2.11460221 68.43160497 1.05694876 66.7160114 0 65 C-0.66 64.01 -1.32 63.02 -2 62 C-2.59872192 52.49146337 1.27240647 42.29801365 3.63696289 33.15332031 C4.19435898 30.986973 4.74017377 28.81793549 5.28515625 26.6484375 C5.61394775 25.37145996 5.94273926 24.09448242 6.28149414 22.77880859 C7.23780537 17.74931989 8.09861416 12.92257478 5.46875 8.3203125 C4.8190625 7.59585938 4.169375 6.87140625 3.5 6.125 C0 2.13888889 0 2.13888889 0 0 Z " fill="#F6F6F6" transform="translate(125,135)"/>
<path d="M0 0 C0.66 0.33 1.32 0.66 2 1 C1.67 2.98 1.34 4.96 1 7 C-0.65 7.33 -2.3 7.66 -4 8 C-4 8.66 -4 9.32 -4 10 C-4.66 10 -5.32 10 -6 10 C-4.6302836 6.00499382 -2.74277578 3.19990508 0 0 Z " fill="#464243" transform="translate(84,131)"/>
<path d="M0 0 C7.92 0 15.84 0 24 0 C23.67 0.99 23.34 1.98 23 3 C11.615 2.505 11.615 2.505 0 2 C0 1.34 0 0.68 0 0 Z " fill="#9E9B9C" transform="translate(125,135)"/>
<path d="M0 0 C0.33 2.31 0.66 4.62 1 7 C0.01 7.33 -0.98 7.66 -2 8 C-5 3.25 -5 3.25 -5 1 C-3 0 -3 0 0 0 Z " fill="#2B2829" transform="translate(216,120)"/>
<path d="M0 0 C0.99 0.33 1.98 0.66 3 1 C2.67 3.64 2.34 6.28 2 9 C1.01 8.67 0.02 8.34 -1 8 C-1.625 5.6875 -1.625 5.6875 -2 3 C-1.34 2.01 -0.68 1.02 0 0 Z " fill="#363133" transform="translate(213,215)"/>
<path d="M0 0 C0.33 0.66 0.66 1.32 1 2 C-1.84936103 5.00765886 -4.23511958 7.27845212 -8 9 C-7.04270084 7.87411986 -6.08412105 6.7493285 -5.125 5.625 C-4.59132812 4.99851562 -4.05765625 4.37203125 -3.5078125 3.7265625 C-2.38567993 2.44163349 -1.20628025 1.20628025 0 0 Z " fill="#636061" transform="translate(166,102)"/>
</svg>
